<?xml version="1.0" encoding="iso-8859-1"?>
<!-- Generator: Adobe Illustrator 19.0.0, SVG Export Plug-In . SVG Version: 6.00 Build 0)  -->
<svg version="1.1" id="Capa_1" xmlns="http://www.w3.org/2000/svg" xmlns:xlink="http://www.w3.org/1999/xlink" x="0px" y="0px"
	 viewBox="0 0 512.359 512.359" style="enable-background:new 0 0 512.359 512.359;" xml:space="preserve">
<path style="fill:#F7B64C;" d="M444.979,376.776l-108.8-27.733l-80,110.933c32,26.667,109.867,44.8,142.933,51.2"/>
<path style="fill:#FFD15C;" d="M464.179,467.442c-8.533,29.867-38.4,50.133-64,43.733c-26.667-5.333-39.467-34.133-30.933-65.067
	c16-52.267,45.867-76.8,72.533-71.467C467.379,381.042,479.113,414.109,464.179,467.442z"/>
<path style="fill:#F7B64C;" d="M67.379,376.776l108.8-27.733l80,110.933c-32,26.667-109.867,44.8-142.933,51.2"/>
<path style="fill:#FFD15C;" d="M48.179,467.442c8.533,29.867,38.4,50.133,64,43.733c25.6-6.4,39.467-34.133,30.933-65.067
	c-16-52.267-45.867-76.8-72.533-71.467C44.979,381.042,33.246,414.109,48.179,467.442z"/>
<path style="fill:#F7B64C;" d="M362.846,255.176c0,33.067-48,119.467-106.667,119.467s-106.667-86.4-106.667-119.467
	s48-60.8,106.667-60.8C314.846,194.376,362.846,221.042,362.846,255.176z"/>
<path style="fill:#F3705A;" d="M239.113,463.176c10.667,6.4,23.467,6.4,34.133,0c35.2-20.267,110.933-71.467,110.933-147.2
	c0-37.333-29.867-68.267-67.2-68.267c-26.667,0-49.067,16-60.8,38.4c-10.667-22.4-34.133-38.4-60.8-38.4
	c-37.333,0-67.2,30.933-67.2,68.267C128.179,391.709,203.913,442.909,239.113,463.176z"/>
<g>
	<path style="fill:#F7B64C;" d="M291.379,207.176c0,0,82.133-7.467,119.467,43.733c27.733,35.2,53.333,87.467,17.067,103.467
		c-10.667,5.333-23.467,6.4-35.2,3.2c-11.733-3.2-23.467-10.667-19.2-27.733C391.646,270.109,329.779,239.176,291.379,207.176z"/>
	<path style="fill:#F7B64C;" d="M220.979,207.176c0,0-82.133-7.467-119.467,43.733c-27.733,35.2-53.333,87.467-17.067,103.467
		c10.667,5.333,23.467,6.4,35.2,3.2c11.733-3.2,23.467-10.667,19.2-27.733C120.713,270.109,182.579,239.176,220.979,207.176z"/>
	<path style="fill:#F7B64C;" d="M207.113,26.909c7.467,21.333,2.133,57.6-19.2,65.067c-21.333,7.467-49.067-14.933-57.6-36.267
		c-7.467-21.333,3.2-44.8,23.467-52.267C175.113-5.091,198.579,5.576,207.113,26.909z"/>
	<path style="fill:#F7B64C;" d="M305.246,26.909c-7.467,21.333-2.133,57.6,19.2,65.067c21.333,7.467,49.067-14.933,57.6-36.267
		s-2.133-44.8-23.467-53.333C337.246-5.091,313.779,5.576,305.246,26.909z"/>
</g>
<path style="fill:#FFD15C;" d="M368.179,120.776c-1.067,59.733-51.2,118.4-112,118.4c-59.733,0-109.867-59.733-112-118.4
	c-1.067-60.8,49.067-112,112-112S369.246,59.976,368.179,120.776z"/>
<path style="fill:#FFFFFF;" d="M313.779,153.842c0,32-25.6,45.867-57.6,45.867s-57.6-13.867-57.6-45.867s25.6-57.6,57.6-57.6
	S313.779,121.842,313.779,153.842z"/>
<g>
	<path style="fill:#415A6B;" d="M256.179,185.842c-13.867,0-32-6.4-39.467-19.2c-1.067-1.067,0-3.2,1.067-4.267
		c1.067-1.067,3.2,0,4.267,1.067c6.4,10.667,22.4,16,34.133,16c11.733,0,27.733-5.333,34.133-16c1.067-1.067,3.2-2.133,4.267-1.067
		c1.067,1.067,2.133,3.2,1.067,4.267C288.179,179.442,270.046,185.842,256.179,185.842z"/>
	<ellipse style="fill:#415A6B;" cx="256.179" cy="125.042" rx="27.733" ry="19.2"/>
	<rect x="252.979" y="141.042" style="fill:#415A6B;" width="6.4" height="39.467"/>
</g>
<circle style="fill:#344A5E;" cx="306.313" cy="91.976" r="12.8"/>
<circle style="fill:#FFFFFF;" cx="311.646" cy="87.709" r="3.2"/>
<circle style="fill:#344A5E;" cx="206.046" cy="91.976" r="12.8"/>
<g>
	<circle style="fill:#FFFFFF;" cx="200.713" cy="87.709" r="3.2"/>
	<path style="fill:#FFFFFF;" d="M171.913,375.709v-45.867h10.667v36.267h19.2v9.6L171.913,375.709L171.913,375.709z"/>
	<path style="fill:#FFFFFF;" d="M246.579,370.376c-4.267,4.267-10.667,6.4-17.067,6.4s-12.8-2.133-17.067-6.4
		c-4.267-4.267-7.467-10.667-7.467-17.067c0-6.4,2.133-12.8,7.467-17.067c4.267-4.267,10.667-6.4,17.067-6.4s12.8,2.133,17.067,6.4
		s7.467,10.667,7.467,17.067C254.046,359.709,250.846,365.042,246.579,370.376z M243.379,353.309c0-4.267-1.067-7.467-4.267-10.667
		c-2.133-3.2-5.333-4.267-9.6-4.267s-7.467,1.067-9.6,4.267c-2.133,3.2-4.267,6.4-4.267,10.667s1.067,7.467,4.267,10.667
		c2.133,3.2,5.333,4.267,9.6,4.267s7.467-1.067,9.6-4.267C241.246,360.776,243.379,357.576,243.379,353.309z"/>
	<path style="fill:#FFFFFF;" d="M278.579,359.709l11.733-28.8h10.667l-18.133,45.867h-8.533l-18.133-45.867h10.667L278.579,359.709z
		"/>
	<path style="fill:#FFFFFF;" d="M339.379,329.842v9.6h-22.4v9.6h20.267v8.533h-20.267v9.6h23.467v8.533h-34.133v-45.867H339.379
		L339.379,329.842z"/>
</g>
<g>
</g>
<g>
</g>
<g>
</g>
<g>
</g>
<g>
</g>
<g>
</g>
<g>
</g>
<g>
</g>
<g>
</g>
<g>
</g>
<g>
</g>
<g>
</g>
<g>
</g>
<g>
</g>
<g>
</g>
</svg>
